HIERARCHY
ROOT Hips
{
	OFFSET 0.000000 0.000000 0.000000
	CHANNELS 6 Xposition Yposition Zposition Zrotation Yrotation Xrotation 
	JOINT LHipJoint
	{
		OFFSET 0.000000 0.000000 0.000000
		CHANNELS 3 Zrotation Yrotation Xrotation
		JOINT LeftUpLeg
		{
			OFFSET 1.363060 -1.794630 0.839290
			CHANNELS 3 Zrotation Yrotation Xrotation
			JOINT LeftLeg
			{
				OFFSET 2.448110 -6.726130 0.000000
				CHANNELS 3 Zrotation Yrotation Xrotation
				JOINT LeftFoot
				{
					OFFSET 2.562200 -7.039590 0.000000
					CHANNELS 3 Zrotation Yrotation Xrotation
					JOINT LeftToeBase
					{
						OFFSET 0.157640 -0.433110 2.322550
						CHANNELS 3 Zrotation Yrotation Xrotation
						End Site
						{
							OFFSET 0.000000 0.000000 0.000000
						}
					}
				}
			}
		}
	}
	JOINT RHipJoint
	{
		OFFSET 0.000000 0.000000 0.000000
		CHANNELS 3 Zrotation Yrotation Xrotation
		JOINT RightUpLeg
		{
			OFFSET -1.305520 -1.794630 0.839290
			CHANNELS 3 Zrotation Yrotation Xrotation
			JOINT RightLeg
			{
				OFFSET -2.542530 -6.985550 0.000000
				CHANNELS 3 Zrotation Yrotation Xrotation
				JOINT RightFoot
				{
					OFFSET -2.568260 -7.056230 0.000000
					CHANNELS 3 Zrotation Yrotation Xrotation
					JOINT RightToeBase
					{
						OFFSET -0.164730 -0.452590 2.363150
						CHANNELS 3 Zrotation Yrotation Xrotation
						End Site
						{
							OFFSET 0.000000 0.000000 0.000000
						}
					}
				}
			}
		}
	}
	JOINT LowerBack
	{
		OFFSET 0.000000 0.000000 0.000000
		CHANNELS 3 Zrotation Yrotation Xrotation
		JOINT Spine
		{
			OFFSET 0.028270 2.035590 -0.193380
			CHANNELS 3 Zrotation Yrotation Xrotation
			JOINT Spine1
			{
				OFFSET 0.056720 2.048850 -0.042750
				CHANNELS 3 Zrotation Yrotation Xrotation
				JOINT Neck
				{
					OFFSET 0.000000 0.000000 0.000000
					CHANNELS 3 Zrotation Yrotation Xrotation
					JOINT Neck1
					{
						OFFSET -0.054170 1.746240 0.172020
						CHANNELS 3 Zrotation Yrotation Xrotation
						JOINT Head
						{
							OFFSET 0.104070 1.761360 -0.123970
							CHANNELS 3 Zrotation Yrotation Xrotation
							End Site
							{
								OFFSET 0.000000 0.000000 0.000000
							}
						}
					}
				}
				JOINT LeftShoulder
				{
					OFFSET 0.000000 0.000000 0.000000
					CHANNELS 3 Zrotation Yrotation Xrotation
					JOINT LeftArm
					{
						OFFSET 3.362410 1.200890 -0.311210
						CHANNELS 3 Zrotation Yrotation Xrotation
						JOINT LeftForeArm
						{
							OFFSET 4.983000 -0.000000 -0.000000
							CHANNELS 3 Zrotation Yrotation Xrotation
							JOINT LeftHand
							{
								OFFSET 3.483560 -0.000000 -0.000000
								CHANNELS 3 Zrotation Yrotation Xrotation
								JOINT LeftFingerBase
								{
									OFFSET 0.000000 0.000000 0.000000
									CHANNELS 3 Zrotation Yrotation Xrotation
									JOINT LeftHandIndex1
									{
										OFFSET 0.715260 -0.000000 -0.000000
										CHANNELS 3 Zrotation Yrotation Xrotation
										End Site
										{
											OFFSET 0.000000 0.000000 0.000000
										}
									}
								}
								JOINT LThumb
								{
									OFFSET 0.000000 0.000000 0.000000
									CHANNELS 3 Zrotation Yrotation Xrotation
									End Site
									{
										OFFSET 0.000000 0.000000 0.000000
									}
								}
							}
						}
					}
				}
				JOINT RightShoulder
				{
					OFFSET 0.000000 0.000000 0.000000
					CHANNELS 3 Zrotation Yrotation Xrotation
					JOINT RightArm
					{
						OFFSET -3.136600 1.374050 -0.404650
						CHANNELS 3 Zrotation Yrotation Xrotation
						JOINT RightForeArm
						{
							OFFSET -5.241900 -0.000000 -0.000000
							CHANNELS 3 Zrotation Yrotation Xrotation
							JOINT RightHand
							{
								OFFSET -3.444170 -0.000000 -0.000000
								CHANNELS 3 Zrotation Yrotation Xrotation
								JOINT RightFingerBase
								{
									OFFSET 0.000000 0.000000 0.000000
									CHANNELS 3 Zrotation Yrotation Xrotation
									JOINT RightHandIndex1
									{
										OFFSET -0.622530 -0.000000 -0.000000
										CHANNELS 3 Zrotation Yrotation Xrotation
										End Site
										{
											OFFSET 0.000000 0.000000 0.000000
										}
									}
								}
								JOINT RThumb
								{
									OFFSET 0.000000 0.000000 0.000000
									CHANNELS 3 Zrotation Yrotation Xrotation
									End Site
									{
										OFFSET 0.000000 0.000000 0.000000
									}
								}
							}
						}
					}
				}
			}
		}
	}
}
MOTION
Frames: 9
Frame Time: 0.008333
13.532740 21.662193 -0.646779 -1.606783 -54.067523 -6.317648 8.255934 0.286900 -0.200788 -31.790620 -19.924635 1.860167 0.251785 9.914008 27.345863 0.434768 3.792390 18.054662 2.388400 -9.632100 -27.793500 -8.748133 -0.534484 -2.777093 32.220784 -2.631645 -5.429794 -3.965690 -14.300445 40.460515 5.152299 -30.193487 -29.748214 -0.186900 -2.784100 7.678200 6.050715 3.972295 11.734709 1.457107 6.107022 1.367958 -8.428022 3.213914 0.304223 8.993584 13.091332 0.964344 -5.548682 18.693854 2.716220 -7.304200 8.608400 2.230200 15.756435 4.224019 -1.652328 -69.288207 26.169174 29.252842 47.762668 -49.824516 -32.317665 -1.654221 -4.143665 -11.496418 40.187504 9.125737 12.156400 -7.125000 0.000000 0.000000 14.966600 47.454400 0.926200 -15.631526 -4.096241 1.074250 90.154370 -9.578302 30.742805 -63.610498 56.119648 -45.804237 0.061924 2.748201 -26.022004 -27.180421 3.096619 -0.199300 7.125000 0.000000 0.000000 -1.517800 -29.560500 -0.571600 
13.438175 22.011591 -0.768378 -1.934230 -46.229045 -6.169879 8.278550 0.362392 -0.333497 -31.121995 -19.330357 2.139291 0.303229 9.875625 27.422642 0.703975 3.568864 20.549780 2.446300 -9.739600 -28.137500 -8.715262 -0.517944 -2.781828 31.443375 -2.198927 -7.304917 -4.041049 -14.472087 40.719628 5.582221 -31.051903 -28.663619 -0.316500 -3.616400 10.000000 5.486053 3.384345 12.448292 1.412091 5.309575 1.571486 -8.430391 2.810798 0.579324 8.968606 12.760258 0.587738 -5.804049 18.266017 2.771703 -7.418500 8.390000 2.345600 15.496472 4.212699 -1.553563 -69.417706 23.813119 27.198114 46.100391 -49.014265 -30.602118 -1.665875 -4.118093 -11.273894 39.449993 9.269831 11.922300 -7.125000 0.000000 0.000000 14.215700 47.423000 0.866600 -15.538440 -4.164273 0.963816 90.604155 -11.976586 29.690464 -59.592178 54.876018 -41.952196 0.060589 2.781044 -26.547776 -27.589429 2.380690 0.204700 7.125000 0.000000 0.000000 -1.883800 -30.399800 -0.671900 
13.325246 22.331901 -0.884388 -2.362309 -39.104887 -5.731827 8.222971 0.457475 -0.464963 -29.744404 -18.137361 1.890350 0.294273 9.744607 27.219092 0.797232 3.479013 21.432029 1.946500 -8.753800 -25.028100 -8.756141 -0.483915 -2.716425 30.939647 -0.346636 -8.653912 -4.065578 -14.564282 40.588865 6.115038 -30.963750 -23.266397 -0.005400 -0.475200 1.305700 5.088752 3.044785 13.224959 1.333980 4.863900 1.699004 -8.609645 2.585915 0.554389 9.181088 12.534304 0.536599 -5.720011 17.869889 2.761882 -7.455000 8.202600 2.326000 15.325106 4.190490 -1.490254 -69.109437 22.340013 26.659005 44.843034 -48.346798 -29.245107 -1.725334 -4.163701 -12.317518 40.307245 9.782749 12.758900 -7.125000 0.000000 0.000000 15.306500 48.241900 1.251400 -15.483154 -4.274023 0.880250 91.187913 -14.391737 28.678376 -55.410072 53.500779 -37.943188 0.131302 2.768242 -26.210568 -27.726929 2.531006 0.103600 7.125000 0.000000 0.000000 -2.022300 -30.189500 -0.731500 
13.195091 22.588331 -0.985910 -3.126458 -31.880979 -5.388701 8.188867 0.500810 -0.557742 -28.610768 -17.999606 2.055605 0.251802 9.580418 26.926251 0.594183 3.493603 19.722580 1.908300 -8.672500 -24.776000 -8.843382 -0.436954 -2.694848 30.950244 1.499084 -9.210201 -4.056539 -14.581638 40.207974 6.432733 -30.740485 -15.931905 -0.823100 5.788700 -16.172700 5.398449 2.457954 14.334929 1.259605 4.185279 1.898711 -9.207884 2.274535 0.396449 9.919510 12.374241 1.806598 -6.813741 17.811187 1.297522 -8.214600 8.040700 1.573500 15.162279 4.114711 -1.363498 -68.756447 21.062343 25.447917 43.493263 -47.682356 -27.879926 -1.664586 -4.262725 -13.843447 39.989660 10.403830 13.178100 -7.125000 0.000000 0.000000 15.139100 48.979000 1.517300 -15.436690 -4.406898 0.913097 92.201686 -16.650750 27.756106 -51.647316 52.161510 -34.359122 0.241621 2.744715 -25.355551 -28.196909 3.101220 -0.238800 7.125000 0.000000 0.000000 -2.418000 -29.492900 -0.915000 
13.046343 22.815787 -1.041691 -3.460174 -25.625825 -4.517848 8.183958 0.445360 -0.677560 -28.020791 -18.246866 1.704118 0.170555 9.500311 26.603303 0.279959 3.872328 16.982853 3.300200 -11.165800 -32.841300 -8.966638 -0.283514 -2.560828 30.980574 4.797073 -10.018621 -3.921347 -14.641547 39.790751 5.862826 -28.775548 -13.384922 -2.004600 8.875600 -25.407000 5.343626 2.184457 14.136493 1.157018 3.805668 2.117675 -9.598226 2.135135 1.002490 10.018882 12.285386 2.042800 -6.952411 17.674586 0.736225 -8.323100 7.926500 1.208200 14.883446 4.178518 -1.303605 -68.685690 19.589586 23.877536 41.098372 -46.488395 -25.561147 -1.731060 -4.276905 -12.931639 39.459270 11.173706 13.586000 -7.125000 0.000000 0.000000 14.699100 49.839800 1.788100 -15.365912 -4.623991 0.915176 93.613988 -18.579147 26.844342 -48.038884 50.777617 -30.965890 0.413659 2.701625 -24.519307 -29.100406 4.699414 -1.228100 7.125000 0.000000 0.000000 -3.133300 -27.566500 -1.329400 
12.857785 22.974345 -1.143556 -5.371545 -18.551250 -3.714881 8.015442 0.513859 -0.840253 -25.328571 -17.378957 1.083074 0.183753 9.384120 26.415308 -0.195215 5.271118 14.582612 2.963700 -10.636000 -31.061800 -9.168144 -0.108828 -2.373980 32.794618 7.998857 -10.479985 -3.666902 -14.816012 39.650779 4.698006 -25.523145 -19.299713 -0.013200 0.742200 -2.039800 6.306666 1.586366 14.985010 1.355466 3.245084 2.304495 -9.469627 1.807021 1.039758 10.149054 12.126375 2.199523 -7.200724 17.479494 0.485285 -8.491900 7.816000 1.101600 14.661350 4.158420 -1.230943 -68.947041 17.755286 22.235939 38.763174 -45.137188 -23.255156 -1.810947 -4.388873 -12.173161 39.584926 13.207713 15.402200 -7.125000 0.000000 0.000000 15.190200 52.510600 2.861400 -15.208000 -4.794776 0.877393 94.330852 -20.856491 26.230650 -44.757652 49.401334 -27.961652 0.510846 2.705601 -24.639155 -29.921402 5.204633 -1.591700 7.125000 0.000000 0.000000 -3.806300 -26.934200 -1.672700 
12.679265 23.067198 -1.184963 -4.558144 -11.753236 -3.604941 8.029965 0.467753 -1.003792 -26.176951 -16.629091 0.743676 0.177830 9.496088 26.388701 -1.001757 8.240360 11.534575 1.995200 -8.856000 -25.346000 -9.318544 0.087559 -2.213483 32.058882 11.274354 -11.219994 -3.699500 -15.092972 40.010732 5.081793 -27.051727 -19.823389 -0.021700 0.950500 -2.612600 4.999304 1.343474 15.262668 1.262647 2.781711 2.507456 -9.379070 1.526133 1.308966 11.347294 11.772201 2.313039 -8.510098 17.383395 0.490821 -9.387600 7.746300 1.462200 14.445968 4.259616 -1.163029 -69.116670 15.695591 20.432045 36.246905 -43.626109 -20.958199 -1.724389 -4.496461 -11.664293 37.559089 14.601667 15.438700 -7.125000 0.000000 0.000000 12.940500 53.803300 2.837500 -15.016946 -4.950459 0.855680 95.811800 -23.234643 25.432193 -41.533741 47.954371 -25.153217 0.616571 2.713374 -24.124792 -30.274946 5.872492 -2.036000 7.125000 0.000000 0.000000 -4.092700 -26.133000 -1.876200 
12.482380 23.120013 -1.238918 -3.018561 -4.040768 -3.753273 8.011261 0.474052 -1.133292 -27.756141 -15.027722 0.313641 0.202054 9.701377 26.633441 -1.720213 10.813312 8.779214 0.998500 -6.359000 -17.829800 -9.451136 0.109261 -2.221686 30.628954 12.046124 -12.580006 -3.982053 -15.402618 40.669192 6.916234 -32.504705 -13.365091 -1.171800 6.871000 -19.333800 2.545163 0.468842 16.243586 1.309728 1.339194 2.785997 -8.000850 0.684298 1.383780 10.503738 12.284225 3.064840 -9.212612 18.247488 -0.567835 -9.555600 8.102400 1.053800 14.051865 4.231117 -1.023305 -71.026372 13.989775 17.833003 34.539650 -42.405429 -19.295545 -1.661598 -4.714502 -15.151268 37.711167 14.679258 15.717200 -7.125000 0.000000 0.000000 13.393200 54.015000 3.009300 -14.976891 -5.125507 0.856095 95.625408 -25.497096 26.906718 -38.912797 46.680456 -22.944521 0.711215 2.699945 -23.199130 -30.338696 6.351145 -2.352600 7.125000 0.000000 0.000000 -4.140600 -25.549400 -1.954700 
12.243744 23.117161 -1.272455 -2.333360 3.848034 -3.699270 7.946553 0.530004 -1.359256 -28.225614 -11.514452 -0.825058 0.309786 9.883629 27.029587 -1.922262 11.891637 9.053329 1.839800 -8.524100 -24.317500 -9.622318 0.251760 -2.087341 29.977576 14.486818 -13.269573 -4.031720 -15.641237 41.009903 6.414067 -30.973347 -11.700033 -0.311900 3.590100 -9.926100 1.363374 -0.284777 17.361912 1.282074 0.250888 3.152434 -7.490039 0.073543 1.716072 9.858250 12.330972 3.758287 -9.690001 18.295680 -1.580964 -9.714100 8.088100 0.447600 13.681468 4.149595 -0.857471 -71.861602 11.196791 17.886851 33.237108 -41.275710 -17.954226 -1.862628 -4.760752 -16.107352 39.245350 14.451459 16.460800 -7.125000 0.000000 0.000000 15.445900 54.095600 3.517300 -14.944703 -5.340284 0.896583 97.033169 -27.881178 27.968747 -36.168601 45.230686 -20.714663 0.826969 2.710681 -22.255070 -30.637341 6.931432 -2.744700 7.125000 0.000000 0.000000 -4.379100 -24.865100 -2.137800 
